<svg width="30" height="30" viewBox="0 0 30 30" fill="none" xmlns="http://www.w3.org/2000/svg">
<path d="M15 29.9985C23.2845 29.9985 30 23.2833 30 14.9993C30 6.71516 23.2845 0 15 0C6.7155 0 0 6.71516 0 14.9993C0 21.0079 3.534 26.1917 8.637 28.5856L12.072 12.4374C12.16 12.0537 12.3953 11.7199 12.7272 11.5082C13.0591 11.2964 13.461 11.2236 13.8461 11.3055C14.2312 11.3874 14.5686 11.6174 14.7856 11.9459C15.0026 12.2744 15.0818 12.675 15.006 13.0613C14.595 14.9993 14.235 15.7492 14.2515 16.6492C14.277 18.0591 14.661 18.8121 15.033 19.202C15.4125 19.5995 15.96 19.814 16.6755 19.802C17.406 19.787 18.2325 19.5305 18.9645 19.0685C20.3865 18.1746 21 16.6417 21 14.9993C20.999 14.1079 20.7994 13.228 20.4158 12.4235C20.0321 11.619 19.474 10.9101 18.782 10.3482C18.09 9.78641 17.2816 9.38581 16.4154 9.17556C15.5492 8.9653 14.647 8.95067 13.7744 9.13273C12.9019 9.31479 12.0808 9.68896 11.371 10.2281C10.6612 10.7672 10.0804 11.4576 9.67083 12.2493C9.26128 13.0409 9.03327 13.9139 9.00338 14.8047C8.97348 15.6955 9.14245 16.5818 9.498 17.3991C9.64296 17.761 9.64133 18.1651 9.49347 18.5258C9.3456 18.8865 9.06311 19.1754 8.70584 19.3314C8.34857 19.4875 7.9446 19.4982 7.57952 19.3615C7.21443 19.2248 6.91691 18.9514 6.75 18.5991C6.15288 17.2295 5.90612 15.7329 6.03199 14.2442C6.15787 12.7555 6.6524 11.3215 7.47099 10.0717C8.28958 8.82186 9.40647 7.79547 10.7209 7.08512C12.0353 6.37478 13.5059 6.00283 15 6.00283C16.4941 6.00283 17.9647 6.37478 19.2791 7.08512C20.5935 7.79547 21.7104 8.82186 22.529 10.0717C23.3476 11.3215 23.8421 12.7555 23.968 14.2442C24.0939 15.7329 23.8471 17.2295 23.25 18.5991C22.698 19.871 21.69 20.9 20.562 21.6094C19.4295 22.3219 18.0765 22.7779 16.7295 22.8019C15.501 22.8244 14.2215 22.4839 13.191 21.5899L11.49 29.5875C12.615 29.8575 13.791 30 14.9985 30L15 29.9985Z" fill="#8340C6"/>
</svg>
