<svg width="16" height="16" viewBox="0 0 16 16" fill="none" xmlns="http://www.w3.org/2000/svg">
<g clip-path="url(#clip0_11_12)">
<path d="M15.88 3.85998L15.27 2.54998C15.1943 2.38896 15.0841 2.24656 14.9472 2.13285C14.8104 2.01914 14.6502 1.93691 14.478 1.89198C12.54 1.36398 10.317 1.04098 8.02502 1.00098C5.76609 1.03605 3.52012 1.34975 1.33802 1.93498C1.17302 1.98298 0.885023 2.22498 0.733023 2.54398L0.120023 3.86098C0.0413362 4.02305 0.000313315 4.20081 2.34375e-05 4.38098V5.25098L-0.000976562 5.29198C-0.000976562 5.68398 0.317023 6.00198 0.709023 6.00198L0.742023 6.00098H3.26002C3.45845 5.99628 3.64717 5.91413 3.78583 5.77211C3.92448 5.63009 4.00208 5.43946 4.00202 5.24098L4.00002 5.18798V4.33798C4.0001 4.22931 4.02741 4.1224 4.07947 4.02702C4.13153 3.93163 4.20667 3.85082 4.29802 3.79198C5.44086 3.18496 6.73112 2.9109 8.02202 3.00098C9.31011 2.91408 10.597 3.1869 11.739 3.78898C11.882 3.88798 12.001 4.08898 12.001 4.31798V5.18998C11.9943 5.29216 12.0082 5.39466 12.042 5.49132C12.0759 5.58798 12.1289 5.6768 12.1979 5.75245C12.2669 5.82811 12.3505 5.88903 12.4437 5.93157C12.5369 5.9741 12.6376 5.99737 12.74 5.99998H15.261L15.292 6.00098C15.4803 6.00098 15.6609 5.92617 15.7941 5.79302C15.9272 5.65987 16.002 5.47928 16.002 5.29098L16.001 5.24798V4.37998C16.0004 4.19727 15.9584 4.01708 15.878 3.85298L15.88 3.85998Z" fill="white"/>
<path d="M12 8.3C11.3492 7.46599 10.9967 6.43789 10.999 5.38L11 5.296V5H10V6H6V5H5V5.33L5.001 5.41C5.00244 6.47213 4.64711 7.50397 3.992 8.34L1 12V15H15V12L12 8.3ZM8 13C7.20435 13 6.44129 12.6839 5.87868 12.1213C5.31607 11.5587 5 10.7956 5 10C5 9.20435 5.31607 8.44129 5.87868 7.87868C6.44129 7.31607 7.20435 7 8 7C8.79565 7 9.55871 7.31607 10.1213 7.87868C10.6839 8.44129 11 9.20435 11 10C11 10.7956 10.6839 11.5587 10.1213 12.1213C9.55871 12.6839 8.79565 13 8 13Z" fill="white"/>
<path d="M9.99998 10.0002C10.006 10.2665 9.95875 10.5314 9.86101 10.7792C9.76326 11.027 9.61699 11.2528 9.43077 11.4434C9.24456 11.6339 9.02216 11.7853 8.77663 11.8887C8.5311 11.9921 8.2674 12.0453 8.00099 12.0454C7.73458 12.0455 7.47085 11.9923 7.22527 11.8891C6.97969 11.7858 6.75721 11.6345 6.5709 11.4441C6.38459 11.2537 6.23821 11.0279 6.14034 10.7801C6.04247 10.5324 5.99509 10.2675 6.00098 10.0012C6.01253 9.47863 6.2282 8.98136 6.60182 8.61582C6.97543 8.25029 7.4773 8.04554 7.99999 8.04541C8.52268 8.04528 9.02465 8.24978 9.39845 8.61512C9.77224 8.98047 9.98816 9.47764 9.99998 10.0002Z" fill="white"/>
</g>
<defs>
<clipPath id="clip0_11_12">
<rect width="16" height="16" fill="white"/>
</clipPath>
</defs>
</svg>
