<svg width="57" height="82" viewBox="0 0 57 82" fill="none" xmlns="http://www.w3.org/2000/svg">
<path d="M11.5774 54.0876L11.5268 61.5005C11.5081 64.2413 12.1651 66.9444 13.4397 69.3708C14.7143 71.7972 16.5672 73.8721 18.8345 75.412C21.1018 76.9519 23.7136 77.9094 26.439 78.1997C29.1644 78.49 31.9193 78.1042 34.4602 77.0765C37.001 76.0487 39.2494 74.4107 41.0065 72.3072C42.7636 70.2038 43.9753 67.6997 44.5344 65.0165C45.0934 62.3333 44.9827 59.5537 44.2119 56.9235C43.4411 54.2933 42.034 51.8936 40.1151 49.9366C37.1152 46.8767 28.345 41.2291 28.345 41.2291C28.345 41.2291 19.6137 35.5984 16.6172 32.5645C14.6894 30.6126 13.2729 28.2154 12.493 25.5852C11.7132 22.955 11.5942 20.1731 12.1465 17.4859C12.6988 14.7987 13.9054 12.2892 15.6594 10.1798C17.4134 8.07041 19.6606 6.42622 22.2019 5.39292C24.7433 4.35962 27.5002 3.96912 30.2286 4.25601C32.9569 4.5429 35.5723 5.49832 37.8431 7.03764C40.1139 8.57695 41.97 10.6526 43.2468 13.0807C44.5237 15.5088 45.1819 18.2144 45.1632 20.9577L45.1126 28.3705" stroke="white" stroke-width="7.41303" stroke-linecap="round" stroke-linejoin="round"/>
<path d="M37.7503 20.9069L45.1125 28.3704L52.576 21.0082M4.11388 61.4497L11.5774 54.0875L18.9396 61.551" stroke="white" stroke-width="7.41303" stroke-linecap="round" stroke-linejoin="round"/>
</svg>
